<svg width="1300" height="360" viewBox="0 0 1300 360" xmlns="http://www.w3.org/2000/svg">
  <defs>
    <linearGradient id="bg" x1="0%" y1="0%" x2="100%" y2="100%">
      <stop offset="0%" stop-color="#050609"/>
      <stop offset="55%" stop-color="#0a0d17"/>
      <stop offset="100%" stop-color="#050609"/>
    </linearGradient>
    <radialGradient id="glowGold" cx="50%" cy="0%" r="70%">
      <stop offset="0%" stop-color="#ffb703" stop-opacity="0.20"/>
      <stop offset="100%" stop-color="#ffb703" stop-opacity="0"/>
    </radialGradient>
    <radialGradient id="glowViolet" cx="92%" cy="100%" r="55%">
      <stop offset="0%" stop-color="#8b5cf6" stop-opacity="0.16"/>
      <stop offset="100%" stop-color="#8b5cf6" stop-opacity="0"/>
    </radialGradient>
    <linearGradient id="beam" x1="0%" y1="0%" x2="0%" y2="100%">
      <stop offset="0%" stop-color="#ffe9b0" stop-opacity="0.3"/>
      <stop offset="100%" stop-color="#ffe9b0" stop-opacity="0"/>
    </linearGradient>
    <linearGradient id="wordmarkFill" x1="0%" y1="0%" x2="100%" y2="0%">
      <stop offset="0%" stop-color="#ffd166"/>
      <stop offset="35%" stop-color="#ffb703"/>
      <stop offset="50%" stop-color="#fff6df"/>
      <stop offset="65%" stop-color="#ffb703"/>
      <stop offset="100%" stop-color="#ffd166"/>
    </linearGradient>
    <linearGradient id="ruleFade" x1="0%" y1="0%" x2="100%" y2="0%">
      <stop offset="0%" stop-color="#ffb703" stop-opacity="0"/>
      <stop offset="50%" stop-color="#ffb703" stop-opacity="0.9"/>
      <stop offset="100%" stop-color="#ffb703" stop-opacity="0"/>
    </linearGradient>
    <pattern id="grid" width="46" height="46" patternUnits="userSpaceOnUse">
      <path d="M46,0 L0,0 0,46" fill="none" stroke="#ffffff" stroke-width="0.5" opacity="0.03"/>
    </pattern>
  </defs>

  <rect width="1300" height="360" fill="url(#bg)"/>
  <rect width="1300" height="360" fill="url(#grid)"/>
  <rect width="1300" height="360" fill="url(#glowGold)"/>
  <rect width="1300" height="360" fill="url(#glowViolet)"/>

  <g opacity="0.5">
    <polygon points="140,0 235,0 375,360 235,360" fill="url(#beam)"/>
    <polygon points="1040,0 1135,0 1210,360 965,360" fill="url(#beam)"/>
  </g>

  <g opacity="0.22" stroke="#ffb703" stroke-width="1.1" fill="none">
    <path d="M40,318 Q650,196 1260,318" />
    <path d="M40,333 Q650,213 1260,333" />
  </g>

  <!-- corner frame accents -->
  <g stroke="#ffb703" stroke-width="1.4" opacity="0.5" fill="none">
    <path d="M36,32 L36,58 M36,32 L62,32"/>
    <path d="M1264,32 L1264,58 M1264,32 L1238,32"/>
  </g>

  <!-- live pulse -->
  <g transform="translate(96,70)">
    <circle r="20" fill="none" stroke="#ff3b3b" stroke-width="1.3" opacity="0.5"/>
    <circle r="12" fill="none" stroke="#ff3b3b" stroke-width="1.3" opacity="0.8"/>
    <circle r="5" fill="#ff3b3b"/>
  </g>
  <text x="128" y="75" font-family="'Segoe UI', Arial, sans-serif" font-size="12.5" font-weight="700" letter-spacing="3.2" fill="#ff8a8a">LIVE NOW</text>

  <text x="1204" y="75" text-anchor="end" font-family="'Courier New', monospace" font-size="11.5" letter-spacing="2.5" fill="#5c6478">v2.0 · EDGE-NATIVE</text>

  <text x="650" y="196" text-anchor="middle" font-family="'Segoe UI', Arial, sans-serif" font-weight="800" font-size="98" letter-spacing="9" fill="url(#wordmarkFill)">CRICKCAST</text>

  <rect x="410" y="220" width="480" height="2.5" fill="url(#ruleFade)"/>

  <text x="650" y="260" text-anchor="middle" font-family="'Courier New', monospace" font-size="15" letter-spacing="6.5" fill="#9298ac">LIVE SPORTS · ZERO BUFFER</text>

  <text x="650" y="308" text-anchor="middle" font-family="'Courier New', monospace" font-size="11.5" letter-spacing="3" fill="#5c6478">STATIC SITE · CLOUDFLARE PAGES · SHAKA PLAYER · EDGE PROXY</text>
</svg>
