<svg width="1200" height="620" viewBox="0 0 1200 620" xmlns="http://www.w3.org/2000/svg">
  <defs>
    <linearGradient id="pbg" x1="0%" y1="0%" x2="100%" y2="100%">
      <stop offset="0%" stop-color="#05060a"/>
      <stop offset="100%" stop-color="#0b0e17"/>
    </linearGradient>
    <linearGradient id="cardImg" x1="0%" y1="0%" x2="100%" y2="100%">
      <stop offset="0%" stop-color="#1a2030"/>
      <stop offset="100%" stop-color="#0c0f18"/>
    </linearGradient>
    <linearGradient id="btn" x1="0%" y1="0%" x2="100%" y2="100%">
      <stop offset="0%" stop-color="#ffb703"/>
      <stop offset="100%" stop-color="#e08e00"/>
    </linearGradient>
    <style>
      .card{ fill:#10131d; stroke:#262b3c; stroke-width:1; }
      .cardHot{ fill:#12141f; stroke:#ffb703; stroke-width:1.4; }
      .t1{ font-family:'Segoe UI', Arial, sans-serif; font-weight:700; font-size:16px; fill:#eef1f8; }
      .t2{ font-family:'Segoe UI', Arial, sans-serif; font-size:11.5px; fill:#8c93a8; }
      .mono{ font-family:'Courier New', monospace; font-size:10px; fill:#8c93a8; }
      .chip{ fill:#171c29; stroke:#2a2f42; stroke-width:1; }
    </style>
  </defs>

  <rect width="1200" height="620" fill="url(#pbg)"/>

  <!-- ── browser chrome frame ── -->
  <rect x="0" y="0" width="1200" height="44" fill="#0c0f18" stroke="#1c2130" stroke-width="1"/>
  <circle cx="26" cy="22" r="6.5" fill="#ff5f57"/>
  <circle cx="48" cy="22" r="6.5" fill="#febc2e"/>
  <circle cx="70" cy="22" r="6.5" fill="#28c840"/>
  <rect x="420" y="10" width="360" height="24" rx="12" fill="#161a26" stroke="#262b3c"/>
  <text x="600" y="26" text-anchor="middle" class="mono">🔒 crickcast.pages.dev</text>

  <!-- ── live ticker ── -->
  <rect x="0" y="44" width="1200" height="30" fill="#0c0f18" stroke="#1c2130" stroke-width="1"/>
  <circle cx="24" cy="59" r="3.5" fill="#ff3b3b"/>
  <text x="36" y="63" class="mono">LIVE — INDIA vs AUSTRALIA, 3RD T20I &#8226; LIVE — MI vs CSK, IPL 2026 &#8226; LIVE — ENG vs NZ, TEST</text>

  <!-- ── header ── -->
  <text x="600" y="140" text-anchor="middle" font-family="'Segoe UI', Arial, sans-serif" font-weight="800" font-size="36" letter-spacing="5" fill="#ffb703">CRICKCAST</text>
  <text x="600" y="163" text-anchor="middle" class="mono" letter-spacing="4">LIVE SPORTS &#8226; ZERO BUFFER</text>

  <!-- ── three match cards ── -->
  <g transform="translate(66,200)">
    <rect width="330" height="340" rx="22" class="cardHot"/>
    <rect x="0" y="0" width="330" height="140" rx="22" fill="url(#cardImg)"/>
    <rect x="18" y="18" width="58" height="22" rx="11" fill="#2a0f0f" stroke="#ff3b3b"/>
    <circle cx="29" cy="29" r="3" fill="#ff3b3b"/>
    <text x="38" y="33" font-family="'Courier New', monospace" font-size="9" fill="#ff8a8a">LIVE</text>
    <text x="22" y="172" class="t2">ICC WORLD CUP</text>
    <text x="22" y="196" class="t1">India vs Australia</text>
    <rect x="22" y="214" width="122" height="28" rx="9" class="chip"/>
    <text x="33" y="232" class="t2">INDIA</text>
    <rect x="186" y="214" width="122" height="28" rx="9" class="chip"/>
    <text x="197" y="232" class="t2">AUSTRALIA</text>
    <rect x="22" y="282" width="286" height="42" rx="13" fill="url(#btn)"/>
    <text x="165" y="308" text-anchor="middle" font-family="'Segoe UI', Arial, sans-serif" font-weight="700" font-size="13.5" fill="#1a0f00">&#9654; WATCH LIVE</text>
  </g>

  <g transform="translate(434,200)">
    <rect width="330" height="340" rx="22" class="card"/>
    <rect x="0" y="0" width="330" height="140" rx="22" fill="url(#cardImg)"/>
    <text x="22" y="172" class="t2">IPL 2026</text>
    <text x="22" y="196" class="t1">Mumbai vs Chennai</text>
    <rect x="22" y="214" width="122" height="28" rx="9" class="chip"/>
    <text x="33" y="232" class="t2">MUMBAI</text>
    <rect x="186" y="214" width="122" height="28" rx="9" class="chip"/>
    <text x="197" y="232" class="t2">CHENNAI</text>
    <rect x="22" y="282" width="286" height="42" rx="13" fill="#171c29" stroke="#2a2f42"/>
    <text x="165" y="308" text-anchor="middle" font-family="'Segoe UI', Arial, sans-serif" font-weight="700" font-size="13.5" fill="#5c6478">&#9203; UPCOMING</text>
  </g>

  <g transform="translate(802,200)">
    <rect width="330" height="340" rx="22" class="cardHot"/>
    <rect x="0" y="0" width="330" height="140" rx="22" fill="url(#cardImg)"/>
    <rect x="18" y="18" width="58" height="22" rx="11" fill="#2a0f0f" stroke="#ff3b3b"/>
    <circle cx="29" cy="29" r="3" fill="#ff3b3b"/>
    <text x="38" y="33" font-family="'Courier New', monospace" font-size="9" fill="#ff8a8a">LIVE</text>
    <text x="22" y="172" class="t2">TEST CHAMPIONSHIP</text>
    <text x="22" y="196" class="t1">England vs New Zealand</text>
    <rect x="22" y="214" width="122" height="28" rx="9" class="chip"/>
    <text x="33" y="232" class="t2">ENGLAND</text>
    <rect x="186" y="214" width="122" height="28" rx="9" class="chip"/>
    <text x="197" y="232" class="t2">N. ZEALAND</text>
    <rect x="22" y="282" width="286" height="42" rx="13" fill="url(#btn)"/>
    <text x="165" y="308" text-anchor="middle" font-family="'Segoe UI', Arial, sans-serif" font-weight="700" font-size="13.5" fill="#1a0f00">&#9654; WATCH LIVE</text>
  </g>

  <text x="600" y="592" text-anchor="middle" class="mono" letter-spacing="2">ILLUSTRATIVE UI PREVIEW — NOT A LIVE SCREENSHOT</text>
</svg>
